<svg xmlns="http://www.w3.org/2000/svg" viewBox="0 0 479 279"><path d="M363,67c2,5,5,16,5,19v32a275.1,275.1,0,0,1,29-3c45,0,82,34,82,80,0,51-40,84-88,84C268,279,243,93,123,93c-50,0-83,29-83,80s41,80,85,80c17,0,45-7,61-14a225.6,225.6,0,0,0,22-11c7-4,22-19,29-19s7,5,7,7c0,9-10,14-20,23-35,28-74,40-109,40-37,0-94-19-110-74-2-7-5-20-5-22V156C15,82,67,58,117,58c128,0,165,183,269,183,25,0,43-10,54-43V177c-5-27-31-39-51-39-14,0-31,8-35,8-10,0-11-7-11-13,0-2,2-10,3-15V95c-9-53-53-73-90-73-11,0-29,4-38,10-6,3-13,9-20,15a10.8,10.8,0,0,1-7,3c-7,0-7-6-7-8,0-12,30-31,36-33a201.6,201.6,0,0,1,29-8c5-1,13-1,16-1C299,0,347,18,363,67Z" style="fill:#00bcd4;fill-rule:evenodd"/></svg>